<?xml version="1.0" standalone="no"?>
<!DOCTYPE svg PUBLIC "-//W3C//DTD SVG 20010904//EN"
 "http://www.w3.org/TR/2001/REC-SVG-20010904/DTD/svg10.dtd">
<svg version="1.0" xmlns="http://www.w3.org/2000/svg"
 width="128.000000pt" height="128.000000pt" viewBox="0 0 500.000000 500.000000"
 preserveAspectRatio="xMidYMid meet">
<metadata>
Created by potrace 1.16, written by Peter Selinger 2001-2019
</metadata>
<g transform="translate(0.000000,500.000000) scale(0.100000,-0.100000)"
fill="#fff" stroke="none">
<path d="M2140 4403 c-36 -63 -73 -129 -83 -146 l-19 -30 -73 73 -74 74 -23
-20 c-13 -11 -52 -46 -87 -77 l-63 -56 -77 59 c-42 33 -85 75 -95 95 -34 62
-126 115 -200 115 -139 0 -263 -140 -241 -273 15 -87 83 -172 159 -197 l36
-12 0 -531 0 -532 -73 -39 c-441 -240 -796 -650 -941 -1086 -75 -225 -79 -259
-83 -718 l-5 -412 2279 0 2279 0 14 178 c18 248 9 582 -20 717 -106 497 -421
930 -904 1244 -61 39 -114 71 -118 71 -4 0 -8 250 -8 555 l0 555 37 15 c60 25
99 61 127 117 44 87 32 184 -32 258 -51 60 -104 84 -182 84 -47 0 -76 -6 -106
-22 -78 -41 -134 -128 -134 -210 0 -31 -22 -53 -52 -52 -7 1 -53 64 -102 141
l-88 140 -70 -123 c-39 -68 -77 -134 -85 -147 l-15 -23 -72 71 -73 72 -112
-55 -113 -55 -54 34 c-30 19 -59 35 -65 35 -5 0 -46 -21 -90 -46 -45 -25 -85
-42 -89 -37 -5 4 -36 77 -71 161 -34 83 -65 152 -68 152 -3 0 -35 -53 -71
-117z m134 -108 c32 -80 59 -145 61 -145 1 0 42 22 91 50 49 27 96 49 104 49
8 0 38 -15 65 -33 l50 -33 110 54 109 54 81 -81 81 -80 79 140 c44 77 82 140
85 140 3 0 18 -21 35 -48 16 -26 53 -84 82 -129 l53 -82 37 16 c26 10 38 12
41 4 16 -47 72 -108 125 -135 l57 -29 0 -523 0 -524 -57 26 c-366 164 -699
238 -1078 237 -381 -1 -704 -67 -1057 -217 l-38 -16 0 509 0 509 34 12 c48 16
121 83 139 127 8 21 18 57 22 81 4 23 9 42 12 42 2 0 31 -21 64 -46 l58 -46
84 75 83 76 80 -80 80 -80 44 78 c85 151 111 193 118 193 4 0 33 -66 66 -145z
m-419 -2509 c149 -39 248 -151 247 -281 0 -67 -11 -102 -48 -156 -82 -120
-297 -177 -431 -115 -62 29 -123 90 -155 154 -34 69 -32 169 4 238 33 63 114
137 171 157 53 19 147 21 212 3z m1546 -15 c122 -47 199 -150 199 -269 0 -78
-16 -118 -75 -180 -65 -70 -145 -105 -257 -110 -76 -4 -92 -1 -140 20 -157 73
-226 246 -155 390 33 67 109 140 170 162 59 22 185 15 258 -13z"/>
<path d="M200 425 l0 -145 2300 0 2300 0 0 145 0 145 -2300 0 -2300 0 0 -145z"/>
</g>
</svg>
